<?xml version="1.0" encoding="iso-8859-1"?>
<!-- Generator: Adobe Illustrator 19.0.0, SVG Export Plug-In . SVG Version: 6.00 Build 0)  -->
<svg version="1.1" id="Capa_1" xmlns="http://www.w3.org/2000/svg" xmlns:xlink="http://www.w3.org/1999/xlink" x="0px" y="0px"
	 viewBox="0 0 512 512" style="enable-background:new 0 0 512 512;" xml:space="preserve">
<path style="fill:#1689FC;" d="M135,121C60.601,121,0,181.601,0,256v60c0,8.401,6.599,15,15,15h241c8.401,0,16-6.599,16-15v-60
	C272,181.601,209.399,121,135,121z"/>
<path style="fill:#136EF1;" d="M272,256v60c0,8.401-7.599,15-16,15H135V121C209.399,121,272,181.601,272,256z"/>
<path style="fill:#17ACE8;" d="M135,0C93.6,0,60,34.6,60,76s33.6,75,75,75s75-33.6,75-75S176.4,0,135,0z"/>
<g>
	<path style="fill:#1689FC;" d="M210,76c0,41.4-33.6,75-75,75V0C176.4,0,210,34.6,210,76z"/>
	<path style="fill:#1689FC;" d="M377,121c-74.399,0-137,60.601-137,135v60c0,8.401,7.599,15,16,15h241c8.401,0,15-6.599,15-15v-60
		C512,181.601,451.399,121,377,121z"/>
</g>
<path style="fill:#136EF1;" d="M512,256v60c0,8.401-6.599,15-15,15H377V121C451.399,121,512,181.601,512,256z"/>
<path style="fill:#17ACE8;" d="M377,0c-41.4,0-75,34.6-75,76s33.6,75,75,75s75-33.6,75-75S418.4,0,377,0z"/>
<path style="fill:#1689FC;" d="M452,76c0,41.4-33.6,75-75,75V0C418.4,0,452,34.6,452,76z"/>
<path style="fill:#19DEC1;" d="M392,436v61c0,8.401-6.599,15-15,15H135c-8.401,0-15-6.599-15-15v-61c0-50.4,28.2-93.9,69.3-117.299
	h133.4C363.8,342.1,392,385.6,392,436z"/>
<path style="fill:#17CEB4;" d="M392,436v61c0,8.401-6.599,15-15,15H256V318.701h66.7C363.8,342.1,392,385.6,392,436z"/>
<path style="fill:#17ACE8;" d="M300.5,429.401l-30-60c-2.701-5.101-9.101-7.8-14.5-7.8s-10.8,2.699-13.5,7.8l-31,60
	c-2.699,5.698-1.8,12.599,3.001,17.098l31,30C248.2,479.5,252.1,481,256,481s8.8-1.5,11.499-4.501l30-30
	C302.3,442,303.199,435.099,300.5,429.401z"/>
<path style="fill:#1689FC;" d="M297.499,446.499l-30,30C264.8,479.5,259.9,481,256,481V361.601c5.4,0,11.8,2.699,14.5,7.8l30,60
	C303.199,435.099,302.3,442,297.499,446.499z"/>
<path style="fill:#17ACE8;" d="M322.7,318.701L269.299,384.7c-2.699,3.9-8.5,6.301-13.299,6.301s-9.6-2.401-12.299-6.301
	L189.3,318.701C208.801,307.899,232,301,256,301S303.199,307.899,322.7,318.701z"/>
<path style="fill:#1689FC;" d="M322.7,318.701L269.299,384.7c-2.699,3.9-8.5,6.301-13.299,6.301v-90
	C280,301,303.199,307.899,322.7,318.701z"/>
<path id="SVGCleanerId_0" style="fill:#787780;" d="M256,181c-41.4,0-76,33.6-76,75s34.6,75,76,75s76-33.6,76-75S297.4,181,256,181z
	"/>
<path id="SVGCleanerId_1" style="fill:#57555C;" d="M332,256c0,41.4-34.6,75-76,75V181C297.4,181,332,214.6,332,256z"/>
<path style="fill:#57555C;" d="M392,436v61c0,8.401-6.599,15-15,15H135c-8.401,0-15-6.599-15-15v-61c0-50.4,28.2-93.9,69.3-117.299
	h133.4C363.8,342.1,392,385.6,392,436z"/>
<path style="fill:#3C3A41;" d="M392,436v61c0,8.401-6.599,15-15,15H256V318.701h66.7C363.8,342.1,392,385.6,392,436z"/>
<path style="fill:#D9D9D9;" d="M322.7,318.701L269.299,384.7c-2.699,3.9-8.5,6.301-13.299,6.301s-9.6-2.401-12.299-6.301
	L189.3,318.701C208.801,307.899,232,301,256,301S303.199,307.899,322.7,318.701z"/>
<path style="fill:#C8C6CD;" d="M322.7,318.701L269.299,384.7c-2.699,3.9-8.5,6.301-13.299,6.301v-90
	C280,301,303.199,307.899,322.7,318.701z"/>
<path style="fill:#E5E5E5;" d="M300.5,429.401l-30-60c-2.701-5.101-9.101-7.8-14.5-7.8s-10.8,2.699-13.5,7.8l-31,60
	c-2.699,5.698-1.8,12.599,3.001,17.098l31,30C248.2,479.5,252.1,481,256,481s8.8-1.5,11.499-4.501l30-30
	C302.3,442,303.199,435.099,300.5,429.401z"/>
<path style="fill:#D9D9D9;" d="M297.499,446.499l-30,30C264.8,479.5,259.9,481,256,481V361.601c5.4,0,11.8,2.699,14.5,7.8l30,60
	C303.199,435.099,302.3,442,297.499,446.499z"/>
<g>
	<path id="SVGCleanerId_0_1_" style="fill:#787780;" d="M256,181c-41.4,0-76,33.6-76,75s34.6,75,76,75s76-33.6,76-75
		S297.4,181,256,181z"/>
</g>
<g>
	<path id="SVGCleanerId_1_1_" style="fill:#57555C;" d="M332,256c0,41.4-34.6,75-76,75V181C297.4,181,332,214.6,332,256z"/>
</g>
<g>
</g>
<g>
</g>
<g>
</g>
<g>
</g>
<g>
</g>
<g>
</g>
<g>
</g>
<g>
</g>
<g>
</g>
<g>
</g>
<g>
</g>
<g>
</g>
<g>
</g>
<g>
</g>
<g>
</g>
</svg>
